STARTFONT 2.1
COMMENT Exported by Fony v1.4.7
FONT Aldo the Apache
SIZE 23 96 96
FONTBOUNDINGBOX 13 22 0 -6
STARTPROPERTIES 6
COPYRIGHT ""
RESOLUTION_X 96
RESOLUTION_Y 96
FONT_ASCENT 17
FONT_DESCENT 6
DEFAULT_CHAR 0
ENDPROPERTIES
CHARS 256
STARTCHAR 000
ENCODING 0
SWIDTH 288 0
DWIDTH 4 0
BBX 0 0 0 0
BITMAP
ENDCHAR
STARTCHAR 001
ENCODING 1
SWIDTH 288 0
DWIDTH 4 0
BBX 4 14 0 -1
BITMAP
F0
80
80
80
80
80
80
80
80
80
80
80
80
F0
ENDCHAR
STARTCHAR 002
ENCODING 2
SWIDTH 288 0
DWIDTH 4 0
BBX 0 0 0 0
BITMAP
ENDCHAR
STARTCHAR 003
ENCODING 3
SWIDTH 288 0
DWIDTH 4 0
BBX 4 14 0 -1
BITMAP
F0
80
80
80
80
80
80
80
80
80
80
80
80
F0
ENDCHAR
STARTCHAR 004
ENCODING 4
SWIDTH 288 0
DWIDTH 4 0
BBX 4 14 0 -1
BITMAP
F0
80
80
80
80
80
80
80
80
80
80
80
80
F0
ENDCHAR
STARTCHAR 005
ENCODING 5
SWIDTH 288 0
DWIDTH 4 0
BBX 4 14 0 -1
BITMAP
F0
80
80
80
80
80
80
80
80
80
80
80
80
F0
ENDCHAR
STARTCHAR 006
ENCODING 6
SWIDTH 288 0
DWIDTH 4 0
BBX 4 14 0 -1
BITMAP
F0
80
80
80
80
80
80
80
80
80
80
80
80
F0
ENDCHAR
STARTCHAR 007
ENCODING 7
SWIDTH 288 0
DWIDTH 4 0
BBX 4 14 0 -1
BITMAP
F0
80
80
80
80
80
80
80
80
80
80
80
80
F0
ENDCHAR
STARTCHAR 008
ENCODING 8
SWIDTH 288 0
DWIDTH 4 0
BBX 4 14 0 -1
BITMAP
F0
80
80
80
80
80
80
80
80
80
80
80
80
F0
ENDCHAR
STARTCHAR 009
ENCODING 9
SWIDTH 288 0
DWIDTH 4 0
BBX 0 0 0 0
BITMAP
ENDCHAR
STARTCHAR 010
ENCODING 10
SWIDTH 288 0
DWIDTH 4 0
BBX 0 0 0 0
BITMAP
ENDCHAR
STARTCHAR 011
ENCODING 11
SWIDTH 288 0
DWIDTH 4 0
BBX 4 14 0 -1
BITMAP
F0
80
80
80
80
80
80
80
80
80
80
80
80
F0
ENDCHAR
STARTCHAR 012
ENCODING 12
SWIDTH 288 0
DWIDTH 4 0
BBX 0 0 0 0
BITMAP
ENDCHAR
STARTCHAR 013
ENCODING 13
SWIDTH 288 0
DWIDTH 4 0
BBX 0 0 0 0
BITMAP
ENDCHAR
STARTCHAR 014
ENCODING 14
SWIDTH 288 0
DWIDTH 4 0
BBX 4 14 0 -1
BITMAP
F0
80
80
80
80
80
80
80
80
80
80
80
80
F0
ENDCHAR
STARTCHAR 015
ENCODING 15
SWIDTH 288 0
DWIDTH 4 0
BBX 4 14 0 -1
BITMAP
F0
80
80
80
80
80
80
80
80
80
80
80
80
F0
ENDCHAR
STARTCHAR 016
ENCODING 16
SWIDTH 288 0
DWIDTH 4 0
BBX 4 14 0 -1
BITMAP
F0
80
80
80
80
80
80
80
80
80
80
80
80
F0
ENDCHAR
STARTCHAR 017
ENCODING 17
SWIDTH 288 0
DWIDTH 4 0
BBX 4 14 0 -1
BITMAP
F0
80
80
80
80
80
80
80
80
80
80
80
80
F0
ENDCHAR
STARTCHAR 018
ENCODING 18
SWIDTH 288 0
DWIDTH 4 0
BBX 4 14 0 -1
BITMAP
F0
80
80
80
80
80
80
80
80
80
80
80
80
F0
ENDCHAR
STARTCHAR 019
ENCODING 19
SWIDTH 288 0
DWIDTH 4 0
BBX 4 14 0 -1
BITMAP
F0
80
80
80
80
80
80
80
80
80
80
80
80
F0
ENDCHAR
STARTCHAR 020
ENCODING 20
SWIDTH 288 0
DWIDTH 4 0
BBX 4 14 0 -1
BITMAP
F0
80
80
80
80
80
80
80
80
80
80
80
80
F0
ENDCHAR
STARTCHAR 021
ENCODING 21
SWIDTH 288 0
DWIDTH 4 0
BBX 4 14 0 -1
BITMAP
F0
80
80
80
80
80
80
80
80
80
80
80
80
F0
ENDCHAR
STARTCHAR 022
ENCODING 22
SWIDTH 288 0
DWIDTH 4 0
BBX 4 14 0 -1
BITMAP
F0
80
80
80
80
80
80
80
80
80
80
80
80
F0
ENDCHAR
STARTCHAR 023
ENCODING 23
SWIDTH 288 0
DWIDTH 4 0
BBX 4 14 0 -1
BITMAP
F0
80
80
80
80
80
80
80
80
80
80
80
80
F0
ENDCHAR
STARTCHAR 024
ENCODING 24
SWIDTH 288 0
DWIDTH 4 0
BBX 4 14 0 -1
BITMAP
F0
80
80
80
80
80
80
80
80
80
80
80
80
F0
ENDCHAR
STARTCHAR 025
ENCODING 25
SWIDTH 288 0
DWIDTH 4 0
BBX 4 14 0 -1
BITMAP
F0
80
80
80
80
80
80
80
80
80
80
80
80
F0
ENDCHAR
STARTCHAR 026
ENCODING 26
SWIDTH 288 0
DWIDTH 4 0
BBX 4 14 0 -1
BITMAP
F0
80
80
80
80
80
80
80
80
80
80
80
80
F0
ENDCHAR
STARTCHAR 027
ENCODING 27
SWIDTH 288 0
DWIDTH 4 0
BBX 4 14 0 -1
BITMAP
F0
80
80
80
80
80
80
80
80
80
80
80
80
F0
ENDCHAR
STARTCHAR 028
ENCODING 28
SWIDTH 288 0
DWIDTH 4 0
BBX 0 0 0 0
BITMAP
ENDCHAR
STARTCHAR 029
ENCODING 29
SWIDTH 288 0
DWIDTH 4 0
BBX 0 0 0 0
BITMAP
ENDCHAR
STARTCHAR 030
ENCODING 30
SWIDTH 288 0
DWIDTH 4 0
BBX 0 0 0 0
BITMAP
ENDCHAR
STARTCHAR 031
ENCODING 31
SWIDTH 288 0
DWIDTH 4 0
BBX 0 0 0 0
BITMAP
ENDCHAR
STARTCHAR 032
ENCODING 32
SWIDTH 288 0
DWIDTH 4 0
BBX 0 0 0 0
BITMAP
ENDCHAR
STARTCHAR 033
ENCODING 33
SWIDTH 288 0
DWIDTH 4 0
BBX 2 12 1 0
BITMAP
C0
C0
C0
C0
C0
C0
C0
C0
C0
00
C0
C0
ENDCHAR
STARTCHAR 034
ENCODING 34
SWIDTH 504 0
DWIDTH 7 0
BBX 6 5 0 8
BITMAP
CC
CC
CC
CC
CC
ENDCHAR
STARTCHAR 035
ENCODING 35
SWIDTH 792 0
DWIDTH 11 0
BBX 11 12 0 0
BITMAP
0D80
1980
1980
7FE0
7FE0
1980
1980
7FE0
FFE0
1300
1300
3300
ENDCHAR
STARTCHAR 036
ENCODING 36
SWIDTH 576 0
DWIDTH 8 0
BBX 7 14 0 -1
BITMAP
18
FE
FE
FE
E6
E0
38
1C
0E
EE
FE
FE
FE
18
ENDCHAR
STARTCHAR 037
ENCODING 37
SWIDTH 864 0
DWIDTH 12 0
BBX 11 12 0 0
BITMAP
7840
F8E0
D880
D900
FB00
F600
05E0
0BE0
1B60
3360
23E0
43C0
ENDCHAR
STARTCHAR 038
ENCODING 38
SWIDTH 792 0
DWIDTH 11 0
BBX 9 9 1 2
BITMAP
1C00
1C00
1C00
FF80
FF80
FF80
1F00
1C00
1000
ENDCHAR
STARTCHAR 039
ENCODING 39
SWIDTH 216 0
DWIDTH 3 0
BBX 2 5 0 8
BITMAP
C0
C0
C0
C0
C0
ENDCHAR
STARTCHAR 040
ENCODING 40
SWIDTH 360 0
DWIDTH 5 0
BBX 4 14 0 -1
BITMAP
70
F0
C0
C0
C0
C0
C0
C0
C0
C0
C0
C0
F0
70
ENDCHAR
STARTCHAR 041
ENCODING 41
SWIDTH 360 0
DWIDTH 5 0
BBX 4 14 0 -1
BITMAP
E0
F0
30
30
30
30
30
30
30
30
30
30
F0
E0
ENDCHAR
STARTCHAR 042
ENCODING 42
SWIDTH 576 0
DWIDTH 8 0
BBX 6 6 1 6
BITMAP
30
B4
FC
70
78
C8
ENDCHAR
STARTCHAR 043
ENCODING 43
SWIDTH 792 0
DWIDTH 11 0
BBX 9 9 1 2
BITMAP
1C00
1C00
1C00
FF80
FF80
FF80
1C00
1C00
1C00
ENDCHAR
STARTCHAR 044
ENCODING 44
SWIDTH 288 0
DWIDTH 4 0
BBX 3 5 0 -2
BITMAP
E0
E0
E0
40
C0
ENDCHAR
STARTCHAR 045
ENCODING 45
SWIDTH 360 0
DWIDTH 5 0
BBX 4 2 0 5
BITMAP
F0
F0
ENDCHAR
STARTCHAR 046
ENCODING 46
SWIDTH 288 0
DWIDTH 4 0
BBX 3 3 0 0
BITMAP
E0
E0
E0
ENDCHAR
STARTCHAR 047
ENCODING 47
SWIDTH 360 0
DWIDTH 5 0
BBX 4 14 0 -1
BITMAP
10
10
10
30
20
20
20
20
60
60
40
40
40
C0
ENDCHAR
STARTCHAR 048
ENCODING 48
SWIDTH 648 0
DWIDTH 9 0
BBX 8 12 0 0
BITMAP
7F
FF
E7
E7
E7
E7
E7
E7
E7
E7
FF
FE
ENDCHAR
STARTCHAR 049
ENCODING 49
SWIDTH 432 0
DWIDTH 6 0
BBX 5 12 0 0
BITMAP
78
F8
F8
38
38
38
38
38
38
38
38
38
ENDCHAR
STARTCHAR 050
ENCODING 50
SWIDTH 648 0
DWIDTH 9 0
BBX 8 12 0 0
BITMAP
3F
7F
67
67
0F
1F
3C
F8
F0
E0
FF
FF
ENDCHAR
STARTCHAR 051
ENCODING 51
SWIDTH 576 0
DWIDTH 8 0
BBX 7 12 1 0
BITMAP
7C
FC
CC
CC
0C
18
1E
0E
CE
CE
FE
FC
ENDCHAR
STARTCHAR 052
ENCODING 52
SWIDTH 648 0
DWIDTH 9 0
BBX 8 12 1 0
BITMAP
08
1C
3C
3C
7C
6C
EC
CC
FF
7F
0C
0C
ENDCHAR
STARTCHAR 053
ENCODING 53
SWIDTH 576 0
DWIDTH 8 0
BBX 6 12 1 0
BITMAP
FC
FC
C0
C0
C0
F8
FC
1C
DC
DC
FC
7C
ENDCHAR
STARTCHAR 054
ENCODING 54
SWIDTH 648 0
DWIDTH 9 0
BBX 8 12 0 0
BITMAP
7F
FF
E7
E7
E0
FF
FF
E7
E7
E7
FF
FE
ENDCHAR
STARTCHAR 055
ENCODING 55
SWIDTH 576 0
DWIDTH 8 0
BBX 7 12 1 0
BITMAP
FC
FC
CE
CC
1C
1C
18
38
38
30
70
60
ENDCHAR
STARTCHAR 056
ENCODING 56
SWIDTH 576 0
DWIDTH 8 0
BBX 6 12 1 0
BITMAP
7C
FC
CC
CC
CC
F8
7C
CC
CC
CC
FC
F8
ENDCHAR
STARTCHAR 057
ENCODING 57
SWIDTH 648 0
DWIDTH 9 0
BBX 8 12 0 0
BITMAP
3F
FF
E7
E7
E7
FF
FF
07
E7
E7
FF
FE
ENDCHAR
STARTCHAR 058
ENCODING 58
SWIDTH 288 0
DWIDTH 4 0
BBX 3 10 0 0
BITMAP
E0
E0
E0
00
00
00
00
E0
E0
E0
ENDCHAR
STARTCHAR 059
ENCODING 59
SWIDTH 288 0
DWIDTH 4 0
BBX 3 12 0 -2
BITMAP
E0
E0
E0
00
00
00
00
E0
E0
E0
40
C0
ENDCHAR
STARTCHAR 060
ENCODING 60
SWIDTH 648 0
DWIDTH 9 0
BBX 9 11 0 0
BITMAP
0080
0380
0F00
3C00
7000
C000
7000
3C00
0F00
0380
0080
ENDCHAR
STARTCHAR 061
ENCODING 61
SWIDTH 648 0
DWIDTH 9 0
BBX 8 6 0 3
BITMAP
FF
FF
00
00
FF
FF
ENDCHAR
STARTCHAR 062
ENCODING 62
SWIDTH 648 0
DWIDTH 9 0
BBX 9 11 0 0
BITMAP
8000
E000
7800
1C00
0700
0180
0700
1C00
7800
E000
8000
ENDCHAR
STARTCHAR 063
ENCODING 63
SWIDTH 576 0
DWIDTH 8 0
BBX 6 12 1 0
BITMAP
F8
FC
CC
CC
0C
18
30
30
00
00
30
30
ENDCHAR
STARTCHAR 064
ENCODING 64
SWIDTH 864 0
DWIDTH 12 0
BBX 10 12 1 0
BITMAP
7FC0
FFC0
C0C0
CFC0
DFC0
DCC0
DCC0
DCC0
DCC0
DCC0
DFC0
DF80
ENDCHAR
STARTCHAR 065
ENCODING 65
SWIDTH 648 0
DWIDTH 9 0
BBX 8 12 0 0
BITMAP
3F
FF
E7
E7
E7
E7
FF
FF
E7
E7
E7
E7
ENDCHAR
STARTCHAR 066
ENCODING 66
SWIDTH 648 0
DWIDTH 9 0
BBX 8 12 0 0
BITMAP
FE
FF
E7
E7
E7
FE
FE
E7
E7
E7
FF
7F
ENDCHAR
STARTCHAR 067
ENCODING 67
SWIDTH 648 0
DWIDTH 9 0
BBX 8 12 0 0
BITMAP
7F
FF
E7
E7
E0
E0
E0
E0
E7
E7
FF
FE
ENDCHAR
STARTCHAR 068
ENCODING 68
SWIDTH 648 0
DWIDTH 9 0
BBX 8 12 0 0
BITMAP
FC
FF
E7
E7
E7
E7
E7
E7
E7
E7
FF
FE
ENDCHAR
STARTCHAR 069
ENCODING 69
SWIDTH 504 0
DWIDTH 7 0
BBX 6 12 0 0
BITMAP
FC
FC
E0
E0
E0
FC
FC
E0
E0
E0
FC
FC
ENDCHAR
STARTCHAR 070
ENCODING 70
SWIDTH 504 0
DWIDTH 7 0
BBX 6 12 0 0
BITMAP
7C
FC
E0
E0
E0
FC
FC
E0
E0
E0
E0
E0
ENDCHAR
STARTCHAR 071
ENCODING 71
SWIDTH 648 0
DWIDTH 9 0
BBX 8 12 0 0
BITMAP
FE
FE
E0
E0
E0
E0
EF
EF
E3
E3
FF
FF
ENDCHAR
STARTCHAR 072
ENCODING 72
SWIDTH 648 0
DWIDTH 9 0
BBX 8 12 0 0
BITMAP
E7
E7
E7
E7
E7
FF
FF
E7
E7
E7
E7
E7
ENDCHAR
STARTCHAR 073
ENCODING 73
SWIDTH 432 0
DWIDTH 6 0
BBX 4 12 1 0
BITMAP
F0
F0
70
70
70
70
70
70
70
70
F0
F0
ENDCHAR
STARTCHAR 074
ENCODING 74
SWIDTH 576 0
DWIDTH 8 0
BBX 7 12 0 0
BITMAP
7E
7E
7E
0E
0E
0E
0E
0E
EE
EE
FE
FC
ENDCHAR
STARTCHAR 075
ENCODING 75
SWIDTH 648 0
DWIDTH 9 0
BBX 8 12 0 0
BITMAP
E7
EE
EE
EC
FC
FF
FF
E7
E7
E7
E7
E7
ENDCHAR
STARTCHAR 076
ENCODING 76
SWIDTH 504 0
DWIDTH 7 0
BBX 7 12 0 0
BITMAP
E0
E0
E0
E0
E0
E0
E0
E0
E0
E0
FE
FE
ENDCHAR
STARTCHAR 077
ENCODING 77
SWIDTH 720 0
DWIDTH 10 0
BBX 9 12 0 0
BITMAP
E380
E380
F780
F780
F780
F780
DD80
DD80
DD80
DD80
C980
C980
ENDCHAR
STARTCHAR 078
ENCODING 78
SWIDTH 576 0
DWIDTH 8 0
BBX 7 12 0 0
BITMAP
E6
E6
E6
F6
F6
FE
DE
DE
DE
CE
CE
CE
ENDCHAR
STARTCHAR 079
ENCODING 79
SWIDTH 648 0
DWIDTH 9 0
BBX 8 12 0 0
BITMAP
FF
FF
E7
E7
E7
E7
E7
E7
E7
E7
FF
FF
ENDCHAR
STARTCHAR 080
ENCODING 80
SWIDTH 648 0
DWIDTH 9 0
BBX 8 12 0 0
BITMAP
7F
FF
E7
E7
E7
E7
E7
FF
FF
E0
E0
E0
ENDCHAR
STARTCHAR 081
ENCODING 81
SWIDTH 648 0
DWIDTH 9 0
BBX 8 14 0 -2
BITMAP
7F
FF
E7
E7
E7
E7
E7
E7
E7
E7
FF
FF
03
01
ENDCHAR
STARTCHAR 082
ENCODING 82
SWIDTH 648 0
DWIDTH 9 0
BBX 8 12 0 0
BITMAP
7F
FF
E7
E7
E7
E7
FF
FF
EE
EE
E7
E7
ENDCHAR
STARTCHAR 083
ENCODING 83
SWIDTH 576 0
DWIDTH 8 0
BBX 6 12 1 0
BITMAP
FC
FC
EC
EC
F0
78
3C
3C
FC
FC
FC
FC
ENDCHAR
STARTCHAR 084
ENCODING 84
SWIDTH 576 0
DWIDTH 8 0
BBX 7 12 1 0
BITMAP
FE
FE
38
38
38
38
38
38
38
38
38
38
ENDCHAR
STARTCHAR 085
ENCODING 85
SWIDTH 648 0
DWIDTH 9 0
BBX 8 12 0 0
BITMAP
E7
E7
E7
E7
E7
E7
E7
E7
E7
E7
FF
FF
ENDCHAR
STARTCHAR 086
ENCODING 86
SWIDTH 576 0
DWIDTH 8 0
BBX 8 12 0 0
BITMAP
E7
66
66
66
76
7E
7E
7E
3E
3C
3C
3C
ENDCHAR
STARTCHAR 087
ENCODING 87
SWIDTH 936 0
DWIDTH 13 0
BBX 12 12 0 0
BITMAP
E670
6670
6660
6760
7F60
7F60
3DE0
3DE0
39C0
39C0
39C0
39C0
ENDCHAR
STARTCHAR 088
ENCODING 88
SWIDTH 648 0
DWIDTH 9 0
BBX 8 12 1 0
BITMAP
E6
EE
6C
7C
7C
38
7C
7C
7C
EE
EE
C7
ENDCHAR
STARTCHAR 089
ENCODING 89
SWIDTH 648 0
DWIDTH 9 0
BBX 7 12 1 0
BITMAP
CE
EE
EC
7C
7C
78
38
38
30
70
70
60
ENDCHAR
STARTCHAR 090
ENCODING 90
SWIDTH 576 0
DWIDTH 8 0
BBX 7 12 0 0
BITMAP
7C
7E
0E
1C
1C
38
38
30
70
70
FE
FE
ENDCHAR
STARTCHAR 091
ENCODING 91
SWIDTH 288 0
DWIDTH 4 0
BBX 3 14 0 -1
BITMAP
E0
E0
C0
C0
C0
C0
C0
C0
C0
C0
C0
C0
E0
E0
ENDCHAR
STARTCHAR 092
ENCODING 92
SWIDTH 360 0
DWIDTH 5 0
BBX 4 14 0 -1
BITMAP
C0
40
40
40
60
60
20
20
20
20
30
10
10
10
ENDCHAR
STARTCHAR 093
ENCODING 93
SWIDTH 360 0
DWIDTH 5 0
BBX 3 14 1 -1
BITMAP
E0
E0
60
60
60
60
60
60
60
60
60
60
E0
E0
ENDCHAR
STARTCHAR 094
ENCODING 94
SWIDTH 288 0
DWIDTH 4 0
BBX 0 0 0 0
BITMAP
ENDCHAR
STARTCHAR 095
ENCODING 95
SWIDTH 648 0
DWIDTH 9 0
BBX 9 2 0 -3
BITMAP
FF80
FF80
ENDCHAR
STARTCHAR 096
ENCODING 96
SWIDTH 360 0
DWIDTH 5 0
BBX 3 2 1 13
BITMAP
C0
60
ENDCHAR
STARTCHAR 097
ENCODING 97
SWIDTH 648 0
DWIDTH 9 0
BBX 8 12 0 0
BITMAP
3F
FF
E7
E7
E7
E7
FF
FF
E7
E7
E7
E7
ENDCHAR
STARTCHAR 098
ENCODING 98
SWIDTH 648 0
DWIDTH 9 0
BBX 8 12 0 0
BITMAP
FE
FF
E7
E7
E7
FE
FE
E7
E7
E7
FF
7F
ENDCHAR
STARTCHAR 099
ENCODING 99
SWIDTH 648 0
DWIDTH 9 0
BBX 8 12 0 0
BITMAP
7F
FF
E7
E7
E0
E0
E0
E0
E7
E7
FF
FE
ENDCHAR
STARTCHAR 100
ENCODING 100
SWIDTH 648 0
DWIDTH 9 0
BBX 8 12 0 0
BITMAP
FC
FF
E7
E7
E7
E7
E7
E7
E7
E7
FF
FE
ENDCHAR
STARTCHAR 101
ENCODING 101
SWIDTH 504 0
DWIDTH 7 0
BBX 6 12 0 0
BITMAP
FC
FC
E0
E0
E0
FC
FC
E0
E0
E0
FC
FC
ENDCHAR
STARTCHAR 102
ENCODING 102
SWIDTH 504 0
DWIDTH 7 0
BBX 6 12 0 0
BITMAP
7C
FC
E0
E0
E0
FC
FC
E0
E0
E0
E0
E0
ENDCHAR
STARTCHAR 103
ENCODING 103
SWIDTH 648 0
DWIDTH 9 0
BBX 8 12 0 0
BITMAP
FE
FE
E0
E0
E0
E0
EF
EF
E3
E3
FF
FF
ENDCHAR
STARTCHAR 104
ENCODING 104
SWIDTH 648 0
DWIDTH 9 0
BBX 8 12 0 0
BITMAP
E7
E7
E7
E7
E7
FF
FF
E7
E7
E7
E7
E7
ENDCHAR
STARTCHAR 105
ENCODING 105
SWIDTH 288 0
DWIDTH 4 0
BBX 3 12 0 0
BITMAP
E0
E0
E0
00
E0
E0
E0
E0
E0
E0
E0
E0
ENDCHAR
STARTCHAR 106
ENCODING 106
SWIDTH 576 0
DWIDTH 8 0
BBX 7 12 0 0
BITMAP
0E
0E
0E
00
0E
0E
0E
0E
EE
EE
FE
FC
ENDCHAR
STARTCHAR 107
ENCODING 107
SWIDTH 648 0
DWIDTH 9 0
BBX 8 12 0 0
BITMAP
E7
EE
EE
EC
FC
FF
FF
E7
E7
E7
E7
E7
ENDCHAR
STARTCHAR 108
ENCODING 108
SWIDTH 504 0
DWIDTH 7 0
BBX 7 12 0 0
BITMAP
E0
E0
E0
E0
E0
E0
E0
E0
E0
E0
FE
FE
ENDCHAR
STARTCHAR 109
ENCODING 109
SWIDTH 720 0
DWIDTH 10 0
BBX 9 12 0 0
BITMAP
E380
E380
F780
F780
F780
F780
DD80
DD80
DD80
DD80
C980
C980
ENDCHAR
STARTCHAR 110
ENCODING 110
SWIDTH 576 0
DWIDTH 8 0
BBX 7 12 0 0
BITMAP
E6
E6
E6
F6
F6
FE
DE
DE
DE
CE
CE
CE
ENDCHAR
STARTCHAR 111
ENCODING 111
SWIDTH 648 0
DWIDTH 9 0
BBX 8 12 0 0
BITMAP
FF
FF
E7
E7
E7
E7
E7
E7
E7
E7
FF
FF
ENDCHAR
STARTCHAR 112
ENCODING 112
SWIDTH 648 0
DWIDTH 9 0
BBX 8 12 0 0
BITMAP
7F
FF
E7
E7
E7
E7
E7
FF
FF
E0
E0
E0
ENDCHAR
STARTCHAR 113
ENCODING 113
SWIDTH 648 0
DWIDTH 9 0
BBX 8 14 0 -2
BITMAP
7F
FF
E7
E7
E7
E7
E7
E7
E7
E7
FF
FF
03
01
ENDCHAR
STARTCHAR 114
ENCODING 114
SWIDTH 648 0
DWIDTH 9 0
BBX 8 12 0 0
BITMAP
7F
FF
E7
E7
E7
E7
FF
FF
EE
EE
E7
E7
ENDCHAR
STARTCHAR 115
ENCODING 115
SWIDTH 576 0
DWIDTH 8 0
BBX 6 12 1 0
BITMAP
FC
FC
EC
E0
F0
78
3C
1C
CC
CC
FC
FC
ENDCHAR
STARTCHAR 116
ENCODING 116
SWIDTH 576 0
DWIDTH 8 0
BBX 7 12 1 0
BITMAP
FE
FE
38
38
38
38
38
38
38
38
38
38
ENDCHAR
STARTCHAR 117
ENCODING 117
SWIDTH 648 0
DWIDTH 9 0
BBX 8 12 0 0
BITMAP
E7
E7
E7
E7
E7
E7
E7
E7
E7
E7
FF
FF
ENDCHAR
STARTCHAR 118
ENCODING 118
SWIDTH 576 0
DWIDTH 8 0
BBX 8 12 0 0
BITMAP
E7
66
66
66
76
7E
7E
7E
3E
3C
3C
3C
ENDCHAR
STARTCHAR 119
ENCODING 119
SWIDTH 936 0
DWIDTH 13 0
BBX 12 12 0 0
BITMAP
E670
6670
6660
6760
7F60
7F60
3DE0
3DE0
39C0
39C0
39C0
39C0
ENDCHAR
STARTCHAR 120
ENCODING 120
SWIDTH 648 0
DWIDTH 9 0
BBX 8 12 1 0
BITMAP
E6
EE
6C
7C
7C
38
7C
7C
7C
EE
EE
C7
ENDCHAR
STARTCHAR 121
ENCODING 121
SWIDTH 648 0
DWIDTH 9 0
BBX 7 12 1 0
BITMAP
CE
EE
EC
7C
7C
78
38
38
30
70
70
60
ENDCHAR
STARTCHAR 122
ENCODING 122
SWIDTH 576 0
DWIDTH 8 0
BBX 7 12 0 0
BITMAP
7C
7E
0E
1C
1C
38
38
30
70
70
FE
FE
ENDCHAR
STARTCHAR 123
ENCODING 123
SWIDTH 288 0
DWIDTH 4 0
BBX 0 0 0 0
BITMAP
ENDCHAR
STARTCHAR 124
ENCODING 124
SWIDTH 288 0
DWIDTH 4 0
BBX 0 0 0 0
BITMAP
ENDCHAR
STARTCHAR 125
ENCODING 125
SWIDTH 288 0
DWIDTH 4 0
BBX 0 0 0 0
BITMAP
ENDCHAR
STARTCHAR 126
ENCODING 126
SWIDTH 288 0
DWIDTH 4 0
BBX 0 0 0 0
BITMAP
ENDCHAR
STARTCHAR 127
ENCODING 127
SWIDTH 288 0
DWIDTH 4 0
BBX 4 14 0 -1
BITMAP
F0
80
80
80
80
80
80
80
80
80
80
80
80
F0
ENDCHAR
STARTCHAR 128
ENCODING 128
SWIDTH 0 0
DWIDTH 0 0
BBX 0 0 0 0
BITMAP
ENDCHAR
STARTCHAR 129
ENCODING 129
SWIDTH 0 0
DWIDTH 0 0
BBX 0 0 0 0
BITMAP
ENDCHAR
STARTCHAR 130
ENCODING 130
SWIDTH 0 0
DWIDTH 0 0
BBX 0 0 0 0
BITMAP
ENDCHAR
STARTCHAR 131
ENCODING 131
SWIDTH 0 0
DWIDTH 0 0
BBX 0 0 0 0
BITMAP
ENDCHAR
STARTCHAR 132
ENCODING 132
SWIDTH 0 0
DWIDTH 0 0
BBX 0 0 0 0
BITMAP
ENDCHAR
STARTCHAR 133
ENCODING 133
SWIDTH 0 0
DWIDTH 0 0
BBX 0 0 0 0
BITMAP
ENDCHAR
STARTCHAR 134
ENCODING 134
SWIDTH 0 0
DWIDTH 0 0
BBX 0 0 0 0
BITMAP
ENDCHAR
STARTCHAR 135
ENCODING 135
SWIDTH 0 0
DWIDTH 0 0
BBX 0 0 0 0
BITMAP
ENDCHAR
STARTCHAR 136
ENCODING 136
SWIDTH 0 0
DWIDTH 0 0
BBX 0 0 0 0
BITMAP
ENDCHAR
STARTCHAR 137
ENCODING 137
SWIDTH 0 0
DWIDTH 0 0
BBX 0 0 0 0
BITMAP
ENDCHAR
STARTCHAR 138
ENCODING 138
SWIDTH 0 0
DWIDTH 0 0
BBX 0 0 0 0
BITMAP
ENDCHAR
STARTCHAR 139
ENCODING 139
SWIDTH 0 0
DWIDTH 0 0
BBX 0 0 0 0
BITMAP
ENDCHAR
STARTCHAR 140
ENCODING 140
SWIDTH 0 0
DWIDTH 0 0
BBX 0 0 0 0
BITMAP
ENDCHAR
STARTCHAR 141
ENCODING 141
SWIDTH 0 0
DWIDTH 0 0
BBX 0 0 0 0
BITMAP
ENDCHAR
STARTCHAR 142
ENCODING 142
SWIDTH 0 0
DWIDTH 0 0
BBX 0 0 0 0
BITMAP
ENDCHAR
STARTCHAR 143
ENCODING 143
SWIDTH 0 0
DWIDTH 0 0
BBX 0 0 0 0
BITMAP
ENDCHAR
STARTCHAR 144
ENCODING 144
SWIDTH 0 0
DWIDTH 0 0
BBX 0 0 0 0
BITMAP
ENDCHAR
STARTCHAR 145
ENCODING 145
SWIDTH 0 0
DWIDTH 0 0
BBX 0 0 0 0
BITMAP
ENDCHAR
STARTCHAR 146
ENCODING 146
SWIDTH 0 0
DWIDTH 0 0
BBX 0 0 0 0
BITMAP
ENDCHAR
STARTCHAR 147
ENCODING 147
SWIDTH 0 0
DWIDTH 0 0
BBX 0 0 0 0
BITMAP
ENDCHAR
STARTCHAR 148
ENCODING 148
SWIDTH 0 0
DWIDTH 0 0
BBX 0 0 0 0
BITMAP
ENDCHAR
STARTCHAR 149
ENCODING 149
SWIDTH 0 0
DWIDTH 0 0
BBX 0 0 0 0
BITMAP
ENDCHAR
STARTCHAR 150
ENCODING 150
SWIDTH 0 0
DWIDTH 0 0
BBX 0 0 0 0
BITMAP
ENDCHAR
STARTCHAR 151
ENCODING 151
SWIDTH 0 0
DWIDTH 0 0
BBX 0 0 0 0
BITMAP
ENDCHAR
STARTCHAR 152
ENCODING 152
SWIDTH 0 0
DWIDTH 0 0
BBX 0 0 0 0
BITMAP
ENDCHAR
STARTCHAR 153
ENCODING 153
SWIDTH 0 0
DWIDTH 0 0
BBX 0 0 0 0
BITMAP
ENDCHAR
STARTCHAR 154
ENCODING 154
SWIDTH 0 0
DWIDTH 0 0
BBX 0 0 0 0
BITMAP
ENDCHAR
STARTCHAR 155
ENCODING 155
SWIDTH 0 0
DWIDTH 0 0
BBX 0 0 0 0
BITMAP
ENDCHAR
STARTCHAR 156
ENCODING 156
SWIDTH 0 0
DWIDTH 0 0
BBX 0 0 0 0
BITMAP
ENDCHAR
STARTCHAR 157
ENCODING 157
SWIDTH 0 0
DWIDTH 0 0
BBX 0 0 0 0
BITMAP
ENDCHAR
STARTCHAR 158
ENCODING 158
SWIDTH 0 0
DWIDTH 0 0
BBX 0 0 0 0
BITMAP
ENDCHAR
STARTCHAR 159
ENCODING 159
SWIDTH 0 0
DWIDTH 0 0
BBX 0 0 0 0
BITMAP
ENDCHAR
STARTCHAR 160
ENCODING 160
SWIDTH 288 0
DWIDTH 4 0
BBX 0 0 0 0
BITMAP
ENDCHAR
STARTCHAR 161
ENCODING 161
SWIDTH 288 0
DWIDTH 4 0
BBX 0 0 0 0
BITMAP
ENDCHAR
STARTCHAR 162
ENCODING 162
SWIDTH 288 0
DWIDTH 4 0
BBX 0 0 0 0
BITMAP
ENDCHAR
STARTCHAR 163
ENCODING 163
SWIDTH 288 0
DWIDTH 4 0
BBX 0 0 0 0
BITMAP
ENDCHAR
STARTCHAR 164
ENCODING 164
SWIDTH 288 0
DWIDTH 4 0
BBX 0 0 0 0
BITMAP
ENDCHAR
STARTCHAR 165
ENCODING 165
SWIDTH 288 0
DWIDTH 4 0
BBX 0 0 0 0
BITMAP
ENDCHAR
STARTCHAR 166
ENCODING 166
SWIDTH 288 0
DWIDTH 4 0
BBX 0 0 0 0
BITMAP
ENDCHAR
STARTCHAR 167
ENCODING 167
SWIDTH 288 0
DWIDTH 4 0
BBX 0 0 0 0
BITMAP
ENDCHAR
STARTCHAR 168
ENCODING 168
SWIDTH 288 0
DWIDTH 4 0
BBX 0 0 0 0
BITMAP
ENDCHAR
STARTCHAR 169
ENCODING 169
SWIDTH 288 0
DWIDTH 4 0
BBX 0 0 0 0
BITMAP
ENDCHAR
STARTCHAR 170
ENCODING 170
SWIDTH 288 0
DWIDTH 4 0
BBX 0 0 0 0
BITMAP
ENDCHAR
STARTCHAR 171
ENCODING 171
SWIDTH 288 0
DWIDTH 4 0
BBX 0 0 0 0
BITMAP
ENDCHAR
STARTCHAR 172
ENCODING 172
SWIDTH 288 0
DWIDTH 4 0
BBX 0 0 0 0
BITMAP
ENDCHAR
STARTCHAR 173
ENCODING 173
SWIDTH 288 0
DWIDTH 4 0
BBX 0 0 0 0
BITMAP
ENDCHAR
STARTCHAR 174
ENCODING 174
SWIDTH 288 0
DWIDTH 4 0
BBX 0 0 0 0
BITMAP
ENDCHAR
STARTCHAR 175
ENCODING 175
SWIDTH 288 0
DWIDTH 4 0
BBX 0 0 0 0
BITMAP
ENDCHAR
STARTCHAR 176
ENCODING 176
SWIDTH 288 0
DWIDTH 4 0
BBX 0 0 0 0
BITMAP
ENDCHAR
STARTCHAR 177
ENCODING 177
SWIDTH 288 0
DWIDTH 4 0
BBX 0 0 0 0
BITMAP
ENDCHAR
STARTCHAR 178
ENCODING 178
SWIDTH 288 0
DWIDTH 4 0
BBX 0 0 0 0
BITMAP
ENDCHAR
STARTCHAR 179
ENCODING 179
SWIDTH 288 0
DWIDTH 4 0
BBX 0 0 0 0
BITMAP
ENDCHAR
STARTCHAR 180
ENCODING 180
SWIDTH 288 0
DWIDTH 4 0
BBX 0 0 0 0
BITMAP
ENDCHAR
STARTCHAR 181
ENCODING 181
SWIDTH 288 0
DWIDTH 4 0
BBX 0 0 0 0
BITMAP
ENDCHAR
STARTCHAR 182
ENCODING 182
SWIDTH 288 0
DWIDTH 4 0
BBX 0 0 0 0
BITMAP
ENDCHAR
STARTCHAR 183
ENCODING 183
SWIDTH 288 0
DWIDTH 4 0
BBX 0 0 0 0
BITMAP
ENDCHAR
STARTCHAR 184
ENCODING 184
SWIDTH 288 0
DWIDTH 4 0
BBX 0 0 0 0
BITMAP
ENDCHAR
STARTCHAR 185
ENCODING 185
SWIDTH 288 0
DWIDTH 4 0
BBX 0 0 0 0
BITMAP
ENDCHAR
STARTCHAR 186
ENCODING 186
SWIDTH 288 0
DWIDTH 4 0
BBX 0 0 0 0
BITMAP
ENDCHAR
STARTCHAR 187
ENCODING 187
SWIDTH 288 0
DWIDTH 4 0
BBX 0 0 0 0
BITMAP
ENDCHAR
STARTCHAR 188
ENCODING 188
SWIDTH 288 0
DWIDTH 4 0
BBX 0 0 0 0
BITMAP
ENDCHAR
STARTCHAR 189
ENCODING 189
SWIDTH 288 0
DWIDTH 4 0
BBX 0 0 0 0
BITMAP
ENDCHAR
STARTCHAR 190
ENCODING 190
SWIDTH 288 0
DWIDTH 4 0
BBX 0 0 0 0
BITMAP
ENDCHAR
STARTCHAR 191
ENCODING 191
SWIDTH 288 0
DWIDTH 4 0
BBX 0 0 0 0
BITMAP
ENDCHAR
STARTCHAR 192
ENCODING 192
SWIDTH 288 0
DWIDTH 4 0
BBX 0 0 0 0
BITMAP
ENDCHAR
STARTCHAR 193
ENCODING 193
SWIDTH 288 0
DWIDTH 4 0
BBX 0 0 0 0
BITMAP
ENDCHAR
STARTCHAR 194
ENCODING 194
SWIDTH 288 0
DWIDTH 4 0
BBX 0 0 0 0
BITMAP
ENDCHAR
STARTCHAR 195
ENCODING 195
SWIDTH 288 0
DWIDTH 4 0
BBX 0 0 0 0
BITMAP
ENDCHAR
STARTCHAR 196
ENCODING 196
SWIDTH 288 0
DWIDTH 4 0
BBX 0 0 0 0
BITMAP
ENDCHAR
STARTCHAR 197
ENCODING 197
SWIDTH 288 0
DWIDTH 4 0
BBX 0 0 0 0
BITMAP
ENDCHAR
STARTCHAR 198
ENCODING 198
SWIDTH 288 0
DWIDTH 4 0
BBX 0 0 0 0
BITMAP
ENDCHAR
STARTCHAR 199
ENCODING 199
SWIDTH 288 0
DWIDTH 4 0
BBX 0 0 0 0
BITMAP
ENDCHAR
STARTCHAR 200
ENCODING 200
SWIDTH 288 0
DWIDTH 4 0
BBX 0 0 0 0
BITMAP
ENDCHAR
STARTCHAR 201
ENCODING 201
SWIDTH 288 0
DWIDTH 4 0
BBX 0 0 0 0
BITMAP
ENDCHAR
STARTCHAR 202
ENCODING 202
SWIDTH 288 0
DWIDTH 4 0
BBX 0 0 0 0
BITMAP
ENDCHAR
STARTCHAR 203
ENCODING 203
SWIDTH 288 0
DWIDTH 4 0
BBX 0 0 0 0
BITMAP
ENDCHAR
STARTCHAR 204
ENCODING 204
SWIDTH 288 0
DWIDTH 4 0
BBX 0 0 0 0
BITMAP
ENDCHAR
STARTCHAR 205
ENCODING 205
SWIDTH 288 0
DWIDTH 4 0
BBX 0 0 0 0
BITMAP
ENDCHAR
STARTCHAR 206
ENCODING 206
SWIDTH 288 0
DWIDTH 4 0
BBX 0 0 0 0
BITMAP
ENDCHAR
STARTCHAR 207
ENCODING 207
SWIDTH 288 0
DWIDTH 4 0
BBX 0 0 0 0
BITMAP
ENDCHAR
STARTCHAR 208
ENCODING 208
SWIDTH 288 0
DWIDTH 4 0
BBX 0 0 0 0
BITMAP
ENDCHAR
STARTCHAR 209
ENCODING 209
SWIDTH 288 0
DWIDTH 4 0
BBX 0 0 0 0
BITMAP
ENDCHAR
STARTCHAR 210
ENCODING 210
SWIDTH 288 0
DWIDTH 4 0
BBX 0 0 0 0
BITMAP
ENDCHAR
STARTCHAR 211
ENCODING 211
SWIDTH 288 0
DWIDTH 4 0
BBX 0 0 0 0
BITMAP
ENDCHAR
STARTCHAR 212
ENCODING 212
SWIDTH 288 0
DWIDTH 4 0
BBX 0 0 0 0
BITMAP
ENDCHAR
STARTCHAR 213
ENCODING 213
SWIDTH 288 0
DWIDTH 4 0
BBX 0 0 0 0
BITMAP
ENDCHAR
STARTCHAR 214
ENCODING 214
SWIDTH 288 0
DWIDTH 4 0
BBX 0 0 0 0
BITMAP
ENDCHAR
STARTCHAR 215
ENCODING 215
SWIDTH 288 0
DWIDTH 4 0
BBX 0 0 0 0
BITMAP
ENDCHAR
STARTCHAR 216
ENCODING 216
SWIDTH 288 0
DWIDTH 4 0
BBX 0 0 0 0
BITMAP
ENDCHAR
STARTCHAR 217
ENCODING 217
SWIDTH 288 0
DWIDTH 4 0
BBX 0 0 0 0
BITMAP
ENDCHAR
STARTCHAR 218
ENCODING 218
SWIDTH 288 0
DWIDTH 4 0
BBX 0 0 0 0
BITMAP
ENDCHAR
STARTCHAR 219
ENCODING 219
SWIDTH 288 0
DWIDTH 4 0
BBX 0 0 0 0
BITMAP
ENDCHAR
STARTCHAR 220
ENCODING 220
SWIDTH 288 0
DWIDTH 4 0
BBX 0 0 0 0
BITMAP
ENDCHAR
STARTCHAR 221
ENCODING 221
SWIDTH 288 0
DWIDTH 4 0
BBX 0 0 0 0
BITMAP
ENDCHAR
STARTCHAR 222
ENCODING 222
SWIDTH 288 0
DWIDTH 4 0
BBX 0 0 0 0
BITMAP
ENDCHAR
STARTCHAR 223
ENCODING 223
SWIDTH 288 0
DWIDTH 4 0
BBX 0 0 0 0
BITMAP
ENDCHAR
STARTCHAR 224
ENCODING 224
SWIDTH 288 0
DWIDTH 4 0
BBX 0 0 0 0
BITMAP
ENDCHAR
STARTCHAR 225
ENCODING 225
SWIDTH 288 0
DWIDTH 4 0
BBX 0 0 0 0
BITMAP
ENDCHAR
STARTCHAR 226
ENCODING 226
SWIDTH 288 0
DWIDTH 4 0
BBX 0 0 0 0
BITMAP
ENDCHAR
STARTCHAR 227
ENCODING 227
SWIDTH 288 0
DWIDTH 4 0
BBX 0 0 0 0
BITMAP
ENDCHAR
STARTCHAR 228
ENCODING 228
SWIDTH 288 0
DWIDTH 4 0
BBX 0 0 0 0
BITMAP
ENDCHAR
STARTCHAR 229
ENCODING 229
SWIDTH 288 0
DWIDTH 4 0
BBX 0 0 0 0
BITMAP
ENDCHAR
STARTCHAR 230
ENCODING 230
SWIDTH 288 0
DWIDTH 4 0
BBX 0 0 0 0
BITMAP
ENDCHAR
STARTCHAR 231
ENCODING 231
SWIDTH 288 0
DWIDTH 4 0
BBX 0 0 0 0
BITMAP
ENDCHAR
STARTCHAR 232
ENCODING 232
SWIDTH 288 0
DWIDTH 4 0
BBX 0 0 0 0
BITMAP
ENDCHAR
STARTCHAR 233
ENCODING 233
SWIDTH 288 0
DWIDTH 4 0
BBX 0 0 0 0
BITMAP
ENDCHAR
STARTCHAR 234
ENCODING 234
SWIDTH 288 0
DWIDTH 4 0
BBX 0 0 0 0
BITMAP
ENDCHAR
STARTCHAR 235
ENCODING 235
SWIDTH 288 0
DWIDTH 4 0
BBX 0 0 0 0
BITMAP
ENDCHAR
STARTCHAR 236
ENCODING 236
SWIDTH 288 0
DWIDTH 4 0
BBX 0 0 0 0
BITMAP
ENDCHAR
STARTCHAR 237
ENCODING 237
SWIDTH 288 0
DWIDTH 4 0
BBX 0 0 0 0
BITMAP
ENDCHAR
STARTCHAR 238
ENCODING 238
SWIDTH 288 0
DWIDTH 4 0
BBX 0 0 0 0
BITMAP
ENDCHAR
STARTCHAR 239
ENCODING 239
SWIDTH 288 0
DWIDTH 4 0
BBX 0 0 0 0
BITMAP
ENDCHAR
STARTCHAR 240
ENCODING 240
SWIDTH 288 0
DWIDTH 4 0
BBX 0 0 0 0
BITMAP
ENDCHAR
STARTCHAR 241
ENCODING 241
SWIDTH 288 0
DWIDTH 4 0
BBX 0 0 0 0
BITMAP
ENDCHAR
STARTCHAR 242
ENCODING 242
SWIDTH 288 0
DWIDTH 4 0
BBX 0 0 0 0
BITMAP
ENDCHAR
STARTCHAR 243
ENCODING 243
SWIDTH 288 0
DWIDTH 4 0
BBX 0 0 0 0
BITMAP
ENDCHAR
STARTCHAR 244
ENCODING 244
SWIDTH 288 0
DWIDTH 4 0
BBX 0 0 0 0
BITMAP
ENDCHAR
STARTCHAR 245
ENCODING 245
SWIDTH 288 0
DWIDTH 4 0
BBX 0 0 0 0
BITMAP
ENDCHAR
STARTCHAR 246
ENCODING 246
SWIDTH 288 0
DWIDTH 4 0
BBX 0 0 0 0
BITMAP
ENDCHAR
STARTCHAR 247
ENCODING 247
SWIDTH 288 0
DWIDTH 4 0
BBX 0 0 0 0
BITMAP
ENDCHAR
STARTCHAR 248
ENCODING 248
SWIDTH 288 0
DWIDTH 4 0
BBX 0 0 0 0
BITMAP
ENDCHAR
STARTCHAR 249
ENCODING 249
SWIDTH 288 0
DWIDTH 4 0
BBX 0 0 0 0
BITMAP
ENDCHAR
STARTCHAR 250
ENCODING 250
SWIDTH 288 0
DWIDTH 4 0
BBX 0 0 0 0
BITMAP
ENDCHAR
STARTCHAR 251
ENCODING 251
SWIDTH 288 0
DWIDTH 4 0
BBX 0 0 0 0
BITMAP
ENDCHAR
STARTCHAR 252
ENCODING 252
SWIDTH 288 0
DWIDTH 4 0
BBX 0 0 0 0
BITMAP
ENDCHAR
STARTCHAR 253
ENCODING 253
SWIDTH 288 0
DWIDTH 4 0
BBX 0 0 0 0
BITMAP
ENDCHAR
STARTCHAR 254
ENCODING 254
SWIDTH 288 0
DWIDTH 4 0
BBX 0 0 0 0
BITMAP
ENDCHAR
STARTCHAR 255
ENCODING 255
SWIDTH 288 0
DWIDTH 4 0
BBX 0 0 0 0
BITMAP
ENDCHAR
ENDFONT
